<svg width="136" height="151" viewBox="0 0 136 151" fill="none" xmlns="http://www.w3.org/2000/svg">
<path d="M35.6 150.1H50.9V142L51.05 134.05C51.05 133.3 51.65 128.2 51.65 123.1C51.65 121.75 51.65 120.55 51.5 119.35C51.35 117.55 51.05 116.2 50.75 114.85C52.7 113.8 59.3 109 61.25 107.35C62.6 106.15 64.7 104.05 65.45 103.45C66.35 102.55 67.55 102.55 68.15 102.55C68.75 102.55 69.8 102.55 70.85 103.45C71.6 104.05 73.55 106 74.9 107.05C80.9 111.7 83.3 113.65 85.55 114.85C85.25 116.2 84.95 117.55 84.8 119.35C84.65 120.7 84.65 122.05 84.65 123.55C84.65 128.5 85.25 133.3 85.25 134.05L85.4 142V150.1H100.7V147.55C100.7 144.4 98 142 95 142H93.35L95.3 134.05C97.7 124.15 99.5 118.3 99.5 111.55V110.95C98.3 106.45 97.1 104.2 92.3 98.35C89.45 94.6 86 91.45 81.95 88C82.7 83.95 83.45 79.45 83.45 76.15C83.45 75.25 83.3 74.5 83.3 73.9C85.1 70.6 86.3 67.75 86.45 61.3C88.85 59.5 91.4 56.65 93.2 54.4C95.45 51.4 98.15 46.75 99.65 42.1C103.4 38.05 106.1 32.8 107.3 26.65C108.95 25.9 110.15 24.25 110.15 20.8V20.2H115.85V31.45C115.85 32.65 116.3 33.7 117.05 34.6C117.35 34.9 117.65 35.05 118.1 35.35C118.7 35.65 119.6 35.95 120.35 35.95H122.15C122.9 35.95 123.8 35.65 124.55 35.2C125.3 34.6 125.9 34 126.2 33.1C126.5 32.65 126.5 32.05 126.5 31.45V20.2H129.05V28.15C129.05 29.8 130.25 31 131.9 31H132.95C134.6 31 135.8 29.8 135.8 28.15V8.5C135.8 7 134.6 5.65 132.95 5.65H131.9C130.25 5.65 129.05 7 129.05 8.5V16.45H126.5V5.34999C126.5 2.79999 124.55 0.849997 122.15 0.849997H120.35C117.8 0.849997 115.85 2.79999 115.85 5.34999V16.45H109.25C108.5 15.25 107.3 14.5 105.2 14.5C102.95 14.5 101.6 15.1 100.7 16.45H35.3C34.55 15.25 33.35 14.5 31.4 14.5C29 14.5 27.65 15.25 26.9 16.45H20.45V5.34999C20.45 2.79999 18.5 0.849997 15.95 0.849997H14.15C11.75 0.849997 9.65 2.79999 9.65 5.34999V16.45H7.25V8.5C7.25 7 6.05 5.65 4.4 5.65H3.35C1.7 5.65 0.35 7 0.35 8.5V28.15C0.35 29.8 1.7 31 3.35 31H4.4C5 31 5.6 30.85 6.05 30.55C6.8 29.95 7.25 29.2 7.25 28.15V20.2H9.65V31.45C9.65 32.65 10.25 33.7 11 34.6L11.6 35.2C12.35 35.65 13.25 35.95 14.15 35.95H15.95C16.85 35.95 17.75 35.65 18.5 35.2L19.1 34.6C19.85 33.7 20.45 32.65 20.45 31.45V20.2H26.15C26.15 24.25 27.35 25.9 29 26.65C30.2 32.8 32.9 38.05 36.65 42.1C38.15 46.75 40.4 50.8 43.25 54.25C45.65 57.4 48.2 60.1 50.3 61.75V62.5C50.3 66.7 51.5 70.45 52.85 73.9C52.85 75.85 53.15 81.55 53.45 83.5C53.6 85 54.05 86.5 54.35 88.15C50.3 91.45 46.85 94.6 44 98.35C40.55 102.1 36.8 107.95 36.8 110.95V111.55C36.8 118.3 38.6 124.15 41 134.05L42.95 142H41.3C38.15 142 35.6 144.4 35.6 147.55V150.1ZM73.25 53.35H73.1V52.3C75.8 51.1 78.05 48.7 78.8 44.35C80 44.2 81.05 43.3 81.05 41.8C81.05 41.05 80.75 40.45 80.45 40V33.55C80.45 29.8 77.75 23.95 68.45 23.95H67.85C58.55 23.95 55.85 29.8 55.85 33.55V40C55.55 40.45 55.25 41.05 55.25 41.8C55.25 43.3 56.3 44.2 57.5 44.35C58.25 48.7 60.5 51.1 63.2 52.3V53.35H63.05C61.25 53.35 60.8 53.35 59.15 53.8C57.5 51.1 56.15 49.3 54.05 46.3C51.5 42.4 48.5 39.7 44.3 37.75C42.35 31.75 39.8 28 35.9 24.1C36.2 23.5 36.35 22.9 36.35 20.2H99.95C99.95 22.45 100.1 23.5 100.4 24.1C96.5 28 93.95 31.75 92 37.75C87.8 39.7 84.8 42.4 82.4 46.3C80.15 49.3 78.8 51.1 77.15 53.8C76.1 53.5 74.6 53.35 73.25 53.35Z" fill="#F43F5F"/>
</svg>
